<mxfile host="app.diagrams.net" agent="Mozilla/5.0 (Windows NT 10.0; Win64; x64) AppleWebKit/537.36 (KHTML, like Gecko) Chrome/131.0.0.0 Safari/537.36" version="25.0.3">
  <diagram name="Page-1" id="SnWsr3sVx2LmT-YYz8MN">
    <mxGraphModel dx="1646" dy="975" grid="1" gridSize="10" guides="1" tooltips="1" connect="1" arrows="1" fold="1" page="1" pageScale="1" pageWidth="850" pageHeight="1100" math="0" shadow="0">
      <root>
        <mxCell id="0" />
        <mxCell id="1" parent="0" />
        <mxCell id="w7u_n14oVsHIHGqbazH--1" value="User" style="shape=umlLifeline;perimeter=lifelinePerimeter;whiteSpace=wrap;container=1;dropTarget=0;collapsible=0;recursiveResize=0;outlineConnect=0;portConstraint=eastwest;newEdgeStyle={&quot;edgeStyle&quot;:&quot;elbowEdgeStyle&quot;,&quot;elbow&quot;:&quot;vertical&quot;,&quot;curved&quot;:0,&quot;rounded&quot;:0};size=65;" vertex="1" parent="1">
          <mxGeometry x="20" y="20" width="150" height="472" as="geometry" />
        </mxCell>
        <mxCell id="w7u_n14oVsHIHGqbazH--2" value="Service Provider" style="shape=umlLifeline;perimeter=lifelinePerimeter;whiteSpace=wrap;container=1;dropTarget=0;collapsible=0;recursiveResize=0;outlineConnect=0;portConstraint=eastwest;newEdgeStyle={&quot;edgeStyle&quot;:&quot;elbowEdgeStyle&quot;,&quot;elbow&quot;:&quot;vertical&quot;,&quot;curved&quot;:0,&quot;rounded&quot;:0};size=65;" vertex="1" parent="1">
          <mxGeometry x="220" y="20" width="150" height="472" as="geometry" />
        </mxCell>
        <mxCell id="w7u_n14oVsHIHGqbazH--3" value="Identity Provider" style="shape=umlLifeline;perimeter=lifelinePerimeter;whiteSpace=wrap;container=1;dropTarget=0;collapsible=0;recursiveResize=0;outlineConnect=0;portConstraint=eastwest;newEdgeStyle={&quot;edgeStyle&quot;:&quot;elbowEdgeStyle&quot;,&quot;elbow&quot;:&quot;vertical&quot;,&quot;curved&quot;:0,&quot;rounded&quot;:0};size=65;" vertex="1" parent="1">
          <mxGeometry x="420" y="20" width="150" height="472" as="geometry" />
        </mxCell>
        <mxCell id="w7u_n14oVsHIHGqbazH--4" value="Request Access" style="verticalAlign=bottom;edgeStyle=elbowEdgeStyle;elbow=vertical;curved=0;rounded=0;endArrow=block;" edge="1" parent="1" source="w7u_n14oVsHIHGqbazH--1" target="w7u_n14oVsHIHGqbazH--2">
          <mxGeometry relative="1" as="geometry">
            <Array as="points">
              <mxPoint x="204" y="127" />
            </Array>
          </mxGeometry>
        </mxCell>
        <mxCell id="w7u_n14oVsHIHGqbazH--5" value="Redirect to IdP" style="verticalAlign=bottom;edgeStyle=elbowEdgeStyle;elbow=vertical;curved=0;rounded=0;endArrow=block;" edge="1" parent="1" source="w7u_n14oVsHIHGqbazH--2" target="w7u_n14oVsHIHGqbazH--1">
          <mxGeometry relative="1" as="geometry">
            <Array as="points">
              <mxPoint x="207" y="179" />
            </Array>
          </mxGeometry>
        </mxCell>
        <mxCell id="w7u_n14oVsHIHGqbazH--6" value="Authenticate" style="verticalAlign=bottom;edgeStyle=elbowEdgeStyle;elbow=vertical;curved=0;rounded=0;endArrow=block;" edge="1" parent="1" source="w7u_n14oVsHIHGqbazH--1" target="w7u_n14oVsHIHGqbazH--3">
          <mxGeometry relative="1" as="geometry">
            <Array as="points">
              <mxPoint x="304" y="231" />
            </Array>
          </mxGeometry>
        </mxCell>
        <mxCell id="w7u_n14oVsHIHGqbazH--7" value="Authentication Response" style="verticalAlign=bottom;edgeStyle=elbowEdgeStyle;elbow=vertical;curved=0;rounded=0;endArrow=block;" edge="1" parent="1" source="w7u_n14oVsHIHGqbazH--3" target="w7u_n14oVsHIHGqbazH--1">
          <mxGeometry relative="1" as="geometry">
            <Array as="points">
              <mxPoint x="307" y="283" />
            </Array>
          </mxGeometry>
        </mxCell>
        <mxCell id="w7u_n14oVsHIHGqbazH--8" value="Relay Response" style="verticalAlign=bottom;edgeStyle=elbowEdgeStyle;elbow=vertical;curved=0;rounded=0;endArrow=block;" edge="1" parent="1" source="w7u_n14oVsHIHGqbazH--1" target="w7u_n14oVsHIHGqbazH--2">
          <mxGeometry relative="1" as="geometry">
            <Array as="points">
              <mxPoint x="204" y="335" />
            </Array>
          </mxGeometry>
        </mxCell>
        <mxCell id="w7u_n14oVsHIHGqbazH--9" value="Access Granted" style="verticalAlign=bottom;edgeStyle=elbowEdgeStyle;elbow=vertical;curved=0;rounded=0;endArrow=block;" edge="1" parent="1" source="w7u_n14oVsHIHGqbazH--2" target="w7u_n14oVsHIHGqbazH--1">
          <mxGeometry relative="1" as="geometry">
            <Array as="points">
              <mxPoint x="207" y="387" />
            </Array>
          </mxGeometry>
        </mxCell>
        <mxCell id="w7u_n14oVsHIHGqbazH--10" value="User" style="shape=umlLifeline;perimeter=lifelinePerimeter;whiteSpace=wrap;container=1;dropTarget=0;collapsible=0;recursiveResize=0;outlineConnect=0;portConstraint=eastwest;newEdgeStyle={&quot;edgeStyle&quot;:&quot;elbowEdgeStyle&quot;,&quot;elbow&quot;:&quot;vertical&quot;,&quot;curved&quot;:0,&quot;rounded&quot;:0};size=65;" vertex="1" parent="1">
          <mxGeometry x="30" y="580" width="150" height="680" as="geometry" />
        </mxCell>
        <mxCell id="w7u_n14oVsHIHGqbazH--11" value="Client Application" style="shape=umlLifeline;perimeter=lifelinePerimeter;whiteSpace=wrap;container=1;dropTarget=0;collapsible=0;recursiveResize=0;outlineConnect=0;portConstraint=eastwest;newEdgeStyle={&quot;edgeStyle&quot;:&quot;elbowEdgeStyle&quot;,&quot;elbow&quot;:&quot;vertical&quot;,&quot;curved&quot;:0,&quot;rounded&quot;:0};size=65;" vertex="1" parent="1">
          <mxGeometry x="230" y="580" width="150" height="680" as="geometry" />
        </mxCell>
        <mxCell id="w7u_n14oVsHIHGqbazH--12" value="Authorization Server" style="shape=umlLifeline;perimeter=lifelinePerimeter;whiteSpace=wrap;container=1;dropTarget=0;collapsible=0;recursiveResize=0;outlineConnect=0;portConstraint=eastwest;newEdgeStyle={&quot;edgeStyle&quot;:&quot;elbowEdgeStyle&quot;,&quot;elbow&quot;:&quot;vertical&quot;,&quot;curved&quot;:0,&quot;rounded&quot;:0};size=65;" vertex="1" parent="1">
          <mxGeometry x="450" y="580" width="164" height="680" as="geometry" />
        </mxCell>
        <mxCell id="w7u_n14oVsHIHGqbazH--13" value="Resource Server" style="shape=umlLifeline;perimeter=lifelinePerimeter;whiteSpace=wrap;container=1;dropTarget=0;collapsible=0;recursiveResize=0;outlineConnect=0;portConstraint=eastwest;newEdgeStyle={&quot;edgeStyle&quot;:&quot;elbowEdgeStyle&quot;,&quot;elbow&quot;:&quot;vertical&quot;,&quot;curved&quot;:0,&quot;rounded&quot;:0};size=65;" vertex="1" parent="1">
          <mxGeometry x="664" y="580" width="150" height="680" as="geometry" />
        </mxCell>
        <mxCell id="w7u_n14oVsHIHGqbazH--14" value="Request Access" style="verticalAlign=bottom;edgeStyle=elbowEdgeStyle;elbow=vertical;curved=0;rounded=0;endArrow=block;" edge="1" parent="1" source="w7u_n14oVsHIHGqbazH--10" target="w7u_n14oVsHIHGqbazH--11">
          <mxGeometry relative="1" as="geometry">
            <Array as="points">
              <mxPoint x="214" y="687" />
            </Array>
          </mxGeometry>
        </mxCell>
        <mxCell id="w7u_n14oVsHIHGqbazH--15" value="Request Authorization" style="verticalAlign=bottom;edgeStyle=elbowEdgeStyle;elbow=vertical;curved=0;rounded=0;endArrow=block;" edge="1" parent="1" source="w7u_n14oVsHIHGqbazH--11" target="w7u_n14oVsHIHGqbazH--12">
          <mxGeometry relative="1" as="geometry">
            <Array as="points">
              <mxPoint x="427" y="739" />
            </Array>
          </mxGeometry>
        </mxCell>
        <mxCell id="w7u_n14oVsHIHGqbazH--16" value="Request Authentication" style="verticalAlign=bottom;edgeStyle=elbowEdgeStyle;elbow=vertical;curved=0;rounded=0;endArrow=block;" edge="1" parent="1" source="w7u_n14oVsHIHGqbazH--12" target="w7u_n14oVsHIHGqbazH--10">
          <mxGeometry relative="1" as="geometry">
            <Array as="points">
              <mxPoint x="330" y="791" />
            </Array>
          </mxGeometry>
        </mxCell>
        <mxCell id="w7u_n14oVsHIHGqbazH--17" value="Authenticate" style="verticalAlign=bottom;edgeStyle=elbowEdgeStyle;elbow=vertical;curved=0;rounded=0;endArrow=block;" edge="1" parent="1" source="w7u_n14oVsHIHGqbazH--10" target="w7u_n14oVsHIHGqbazH--12">
          <mxGeometry relative="1" as="geometry">
            <Array as="points">
              <mxPoint x="327" y="843" />
            </Array>
          </mxGeometry>
        </mxCell>
        <mxCell id="w7u_n14oVsHIHGqbazH--18" value="Authorization Code" style="verticalAlign=bottom;edgeStyle=elbowEdgeStyle;elbow=vertical;curved=0;rounded=0;endArrow=block;" edge="1" parent="1" source="w7u_n14oVsHIHGqbazH--12" target="w7u_n14oVsHIHGqbazH--11">
          <mxGeometry relative="1" as="geometry">
            <Array as="points">
              <mxPoint x="430" y="895" />
            </Array>
          </mxGeometry>
        </mxCell>
        <mxCell id="w7u_n14oVsHIHGqbazH--19" value="Request Token" style="verticalAlign=bottom;edgeStyle=elbowEdgeStyle;elbow=vertical;curved=0;rounded=0;endArrow=block;" edge="1" parent="1" source="w7u_n14oVsHIHGqbazH--11" target="w7u_n14oVsHIHGqbazH--12">
          <mxGeometry relative="1" as="geometry">
            <Array as="points">
              <mxPoint x="427" y="947" />
            </Array>
          </mxGeometry>
        </mxCell>
        <mxCell id="w7u_n14oVsHIHGqbazH--20" value="Access Token" style="verticalAlign=bottom;edgeStyle=elbowEdgeStyle;elbow=vertical;curved=0;rounded=0;endArrow=block;" edge="1" parent="1" source="w7u_n14oVsHIHGqbazH--12" target="w7u_n14oVsHIHGqbazH--11">
          <mxGeometry relative="1" as="geometry">
            <Array as="points">
              <mxPoint x="430" y="999" />
            </Array>
          </mxGeometry>
        </mxCell>
        <mxCell id="w7u_n14oVsHIHGqbazH--21" value="Request Resource" style="verticalAlign=bottom;edgeStyle=elbowEdgeStyle;elbow=vertical;curved=0;rounded=0;endArrow=block;" edge="1" parent="1" source="w7u_n14oVsHIHGqbazH--11" target="w7u_n14oVsHIHGqbazH--13">
          <mxGeometry relative="1" as="geometry">
            <Array as="points">
              <mxPoint x="531" y="1051" />
            </Array>
          </mxGeometry>
        </mxCell>
        <mxCell id="w7u_n14oVsHIHGqbazH--22" value="Resource" style="verticalAlign=bottom;edgeStyle=elbowEdgeStyle;elbow=vertical;curved=0;rounded=0;endArrow=block;" edge="1" parent="1" source="w7u_n14oVsHIHGqbazH--13" target="w7u_n14oVsHIHGqbazH--11">
          <mxGeometry relative="1" as="geometry">
            <Array as="points">
              <mxPoint x="534" y="1103" />
            </Array>
          </mxGeometry>
        </mxCell>
        <mxCell id="w7u_n14oVsHIHGqbazH--23" value="Provide Resource" style="verticalAlign=bottom;edgeStyle=elbowEdgeStyle;elbow=vertical;curved=0;rounded=0;endArrow=block;" edge="1" parent="1" source="w7u_n14oVsHIHGqbazH--11" target="w7u_n14oVsHIHGqbazH--10">
          <mxGeometry relative="1" as="geometry">
            <Array as="points">
              <mxPoint x="217" y="1155" />
            </Array>
          </mxGeometry>
        </mxCell>
        <mxCell id="w7u_n14oVsHIHGqbazH--24" value="&lt;h1 style=&quot;margin-top: 0px;&quot;&gt;OAuth&lt;/h1&gt;&lt;p&gt;mermaidjs&lt;/p&gt;&lt;p&gt;sequenceDiagram&lt;/p&gt;&lt;p&gt;&amp;nbsp; &amp;nbsp; Title: OAuth Authentication Sequence Diagram&lt;/p&gt;&lt;p&gt;&amp;nbsp; &amp;nbsp; participant User as User&lt;/p&gt;&lt;p&gt;&amp;nbsp; &amp;nbsp; participant Client as Client Application&lt;/p&gt;&lt;p&gt;&amp;nbsp; &amp;nbsp; participant AuthServer as Authorization Server&lt;/p&gt;&lt;p&gt;&amp;nbsp; &amp;nbsp; participant ResourceServer as Resource Server&lt;/p&gt;&lt;p&gt;&lt;br&gt;&lt;/p&gt;&lt;p&gt;&amp;nbsp; &amp;nbsp; User-&amp;gt;&amp;gt;Client: Request Access&lt;/p&gt;&lt;p&gt;&amp;nbsp; &amp;nbsp; Client-&amp;gt;&amp;gt;AuthServer: Request Authorization&lt;/p&gt;&lt;p&gt;&amp;nbsp; &amp;nbsp; AuthServer-&amp;gt;&amp;gt;User: Request Authentication&lt;/p&gt;&lt;p&gt;&amp;nbsp; &amp;nbsp; User-&amp;gt;&amp;gt;AuthServer: Authenticate&lt;/p&gt;&lt;p&gt;&amp;nbsp; &amp;nbsp; AuthServer-&amp;gt;&amp;gt;Client: Authorization Code&lt;/p&gt;&lt;p&gt;&amp;nbsp; &amp;nbsp; Client-&amp;gt;&amp;gt;AuthServer: Request Token&lt;/p&gt;&lt;p&gt;&amp;nbsp; &amp;nbsp; AuthServer-&amp;gt;&amp;gt;Client: Access Token&lt;/p&gt;&lt;p&gt;&amp;nbsp; &amp;nbsp; Client-&amp;gt;&amp;gt;ResourceServer: Request Resource&lt;/p&gt;&lt;p&gt;&amp;nbsp; &amp;nbsp; ResourceServer-&amp;gt;&amp;gt;Client: Resource&lt;/p&gt;&lt;p&gt;&amp;nbsp; &amp;nbsp; Client-&amp;gt;&amp;gt;User: Provide Resource&lt;/p&gt;&lt;p&gt;&lt;br&gt;&lt;/p&gt;&lt;p&gt;&amp;nbsp; &amp;nbsp; %% Comments explaining the steps&lt;/p&gt;&lt;p&gt;&amp;nbsp; &amp;nbsp; %% User requests access to the Client Application&lt;/p&gt;&lt;p&gt;&amp;nbsp; &amp;nbsp; %% Client requests authorization from the Authorization Server&lt;/p&gt;&lt;p&gt;&amp;nbsp; &amp;nbsp; %% Authorization Server requests authentication from the User&lt;/p&gt;&lt;p&gt;&amp;nbsp; &amp;nbsp; %% User authenticates with the Authorization Server&lt;/p&gt;&lt;p&gt;&amp;nbsp; &amp;nbsp; %% Authorization Server provides an authorization code to the Client&lt;/p&gt;&lt;p&gt;&amp;nbsp; &amp;nbsp; %% Client requests an access token from the Authorization Server&lt;/p&gt;&lt;p&gt;&amp;nbsp; &amp;nbsp; %% Authorization Server provides an access token to the Client&lt;/p&gt;&lt;p&gt;&amp;nbsp; &amp;nbsp; %% Client requests the resource from the Resource Server&lt;/p&gt;&lt;p&gt;&amp;nbsp; &amp;nbsp; %% Resource Server provides the requested resource to the Client&lt;/p&gt;&lt;p&gt;&amp;nbsp; &amp;nbsp; %% Client provides the resource to the User&lt;/p&gt;&lt;div&gt;&lt;br&gt;&lt;/div&gt;" style="text;html=1;whiteSpace=wrap;overflow=hidden;rounded=0;" vertex="1" parent="1">
          <mxGeometry x="840" y="560" width="430" height="890" as="geometry" />
        </mxCell>
        <mxCell id="w7u_n14oVsHIHGqbazH--25" value="&lt;h1 style=&quot;margin-top: 0px;&quot;&gt;SAML2&lt;/h1&gt;&lt;p&gt;&amp;nbsp; &amp;nbsp; Title: SAML2 Authentication Sequence Diagram&lt;/p&gt;&lt;p&gt;&amp;nbsp; &amp;nbsp; participant User as User&lt;/p&gt;&lt;p&gt;&amp;nbsp; &amp;nbsp; participant SP as Service Provider&lt;/p&gt;&lt;p&gt;&amp;nbsp; &amp;nbsp; participant IdP as Identity Provider&lt;/p&gt;&lt;p&gt;&lt;br&gt;&lt;/p&gt;&lt;p&gt;&amp;nbsp; &amp;nbsp; User-&amp;gt;&amp;gt;SP: Request Access&lt;/p&gt;&lt;p&gt;&amp;nbsp; &amp;nbsp; SP-&amp;gt;&amp;gt;User: Redirect to IdP&lt;/p&gt;&lt;p&gt;&amp;nbsp; &amp;nbsp; User-&amp;gt;&amp;gt;IdP: Authenticate&lt;/p&gt;&lt;p&gt;&amp;nbsp; &amp;nbsp; IdP-&amp;gt;&amp;gt;User: Authentication Response&lt;/p&gt;&lt;p&gt;&amp;nbsp; &amp;nbsp; User-&amp;gt;&amp;gt;SP: Relay Response&lt;/p&gt;&lt;p&gt;&amp;nbsp; &amp;nbsp; SP-&amp;gt;&amp;gt;User: Access Granted&lt;/p&gt;&lt;p&gt;&lt;br&gt;&lt;/p&gt;&lt;p&gt;&amp;nbsp; &amp;nbsp; %% Comments explaining the steps&lt;/p&gt;&lt;p&gt;&amp;nbsp; &amp;nbsp; %% User requests access to the Service Provider (SP)&lt;/p&gt;&lt;p&gt;&amp;nbsp; &amp;nbsp; %% SP redirects User to Identity Provider (IdP) for authentication&lt;/p&gt;&lt;p&gt;&amp;nbsp; &amp;nbsp; %% User authenticates with IdP&lt;/p&gt;&lt;p&gt;&amp;nbsp; &amp;nbsp; %% IdP provides an authentication response to User&lt;/p&gt;&lt;p&gt;&amp;nbsp; &amp;nbsp; %% User relays the authentication response to SP&lt;/p&gt;&lt;p&gt;&amp;nbsp; &amp;nbsp; %% SP grants access to the User&lt;/p&gt;&lt;div&gt;&lt;br&gt;&lt;/div&gt;" style="text;html=1;whiteSpace=wrap;overflow=hidden;rounded=0;" vertex="1" parent="1">
          <mxGeometry x="660" y="20" width="430" height="550" as="geometry" />
        </mxCell>
      </root>
    </mxGraphModel>
  </diagram>
</mxfile>
